PathFileType	4	(X/Y/Z)	pose_F01_0-96.trc
DataRate	CameraRate	NumFrames	NumMarkers	Units	OrigDataRate	OrigDataStartFrame	OrigNumFrames
30	30	5	21	m	30	12	96
Frame#	Time	CHip			RHip			RKnee			RAnkle			RBigToe			RSmallToe			RHeel			LHip			LKnee			LAnkle			LBigToe			LSmallToe			LHeel			Neck			Nose			RShoulder			RElbow			RWrist			LShoulder			LElbow			LWrist			
		X1	Y1	Z1	X2	Y2	Z2	X3	Y3	Z3	X4	Y4	Z4	X5	Y5	Z5	X6	Y6	Z6	X7	Y7	Z7	X8	Y8	Z8	X9	Y9	Z9	X10	Y10	Z10	X11	Y11	Z11	X12	Y12	Z12	X13	Y13	Z13	X14	Y14	Z14	X15	Y15	Z15	X16	Y16	Z16	X17	Y17	Z17	X18	Y18	Z18	X19	Y19	Z19	X20	Y20	Z20	X21	Y21	Z21	
12	0.4	-0.19277950094139595	1.8750499959127216	-0.5514819946509336	-0.2040491539265989	1.871988144359931	-0.4866518600814494	-0.19346500376118872	1.7254568121714409	-0.4651883553785655	-0.1941600789031339	1.5807268962197536	-0.44732553513498374							-0.18690410958503853	1.5709264815930366	-0.45487437644015294	-0.17662717029295522	1.8781020956031544	-0.6118320710728294	-0.16184814723973517	1.7265328489776182	-0.60105618352989	-0.16049186529655207	1.5792626646333952	-0.584802939944656	-0.19675053015038382	1.541685486454074	-0.6149935428223198	-0.17967086005573574	1.549551184864611	-0.6327265338145142	-0.15101099155287057	1.5695841789933633	-0.5674814271212524	-0.17869994531507716	2.0495976409620242	-0.5647000880818471	-0.2165596840894025	2.114414751172037	-0.589225603155818	-0.19600432227958814	2.0468207671609218	-0.4780294965104402	-0.20102782028905974	1.952647518587412	-0.45268199861229286	-0.21744958513634036	1.8759414909782832	-0.4271999540384386	-0.15679960153037076	2.051423258213867	-0.6524452387179134	-1.546435184628358	1.8769913686408675	0.835801767611522	-0.14672223291424819	1.8851437826374404	-0.6781476722707729
13	0.43333333333333335	-0.19347317900562347	1.876231521914669	-0.5546897922311036	-0.20387762967735842	1.873228331801681	-0.48679202688105944	-0.1938348582191608	1.728156960996876	-0.46525938235521835	-0.19428265286918642	1.5789466362335012	-0.44681240699080016							-0.18727799680585014	1.5677717075391324	-0.4537946551319511	-0.17638649120287067	1.8779388866975313	-0.6118305586507369	-0.16265957499453512	1.7292269431940006	-0.604522550044655	-0.16049403416524616	1.579292268873481	-0.5848151243764654	-0.19458225648626404	1.541994924281578	-0.6173178169155096	-0.17543842599118212	1.5503047979359115	-0.6373126430039662	-0.15257936988692003	1.5692170213289347	-0.5660383528375368	-0.17866683656844337	2.0495801016366926	-0.5647313413170021	-0.21653168889399182	2.1144495443272855	-0.5891579175809568	-0.19413508083174869	2.045840296353656	-0.48032324688117467	-0.20106938185449555	1.954099380886458	-0.45308716230730206	-0.21768245229717537	1.8786850369538057	-0.42775844539190383	-0.15683475520446225	2.0513056457285788	-0.6523792653615561	-1.5442393513233197	1.877028426267244	0.8321387168239552	-0.14672223291424819	1.8851437826374404	-0.6781476722707729
14	0.4666666666666667	-0.19337490929633108	1.8747013206154437	-0.5544798502738456	-0.20369845823322888	1.870546547360842	-0.48633215623197396	-0.1934361482677018	1.7280020439409844	-0.46560787401840914	-0.1942846993106483	1.5792110314166776	-0.4468669320506332							-0.18554338690927286	1.5690609968176656	-0.45192045042312495	-0.17628246904388092	1.8764184066806127	-0.6116264895898846	-0.16369743877061918	1.7278096825674736	-0.599115764743992	-0.1584633217545612	1.5793842334368708	-0.5868290125806037	-0.19463717670832467	1.5419410774995679	-0.6171514198071878	-0.17762703759725088	1.550318963803268	-0.6349872898621024	-0.15101632592093464	1.5695972088178238	-0.5673807449713757	-0.1786205547931474	2.0483295871542064	-0.5642675363380667	-0.21368173729513235	2.1143677150626163	-0.5883584922167645	-0.19413867092394146	2.045707885727494	-0.4803861752682148	-0.19908644460418956	1.9527091777602343	-0.45496706924450225	-0.2173160096792565	1.8744667206196273	-0.4268541745055828	-0.1567883476938094	2.0514437089157656	-0.6523963201772778	-1.5420435180182817	1.8770654838936207	0.8284756660363884	-0.14672223291424819	1.8851437826374404	-0.6781476722707729
15	0.5	-0.1935429973707291	1.8735753697143853	-0.5543648039230925	-0.20377930377016418	1.8719052635814957	-0.48654580191713404	-0.19139756070809844	1.7243280065191404	-0.4673276758925633	-0.1943426976509506	1.5791763171300817	-0.4467772688212047							-0.18685640357500605	1.568256967271874	-0.45426366973620186	-0.17632886423476404	1.8765505507883071	-0.6117041172301538	-0.16390100415393422	1.7264320819793095	-0.5987667647933528	-0.16073226792601666	1.5778606480583646	-0.5841041891179649	-0.1970358305632829	1.5404919048377357	-0.6144099719476043	-0.17783891602834892	1.5483616671586142	-0.6342645162031076	-0.151196272466278	1.5682021581000847	-0.566832011038807	-0.17863805173212846	2.0483424626805724	-0.5642733564210235	-0.21365290924195837	2.114395364052568	-0.5883264192873986	-0.19415421615761824	2.0457837777100587	-0.4803242415129196	-0.20116217566226435	1.952975046874603	-0.4531299087685324	-0.21743550324747932	1.8760265304140182	-0.427215720322781	-0.15677646173121915	2.051467020677031	-0.6524503395748386	-1.5398476847132436	1.8771025415199976	0.8248126152488217	-0.14672223291424819	1.8851437826374404	-0.6781476722707729
16	0.5333333333333333	-0.19162807951426397	1.875052268445309	-0.5567647045322835	-0.2038282833071726	1.8732669242459359	-0.4868691191478546	-0.19185714474914334	1.7282818857430182	-0.46741265564947826	-0.19430850359533544	1.5792597159818365	-0.4468678089452341							-0.18697839009364603	1.5689653956428675	-0.4543622457879738	-0.17639508406511487	1.8778855226858682	-0.6118890289159576	-0.16200900288255135	1.7278207272217596	-0.6010385655831453	-0.1587484832706317	1.5779090633199129	-0.5862868983517922	-0.19716966770392685	1.5407143888933692	-0.6143894709419587	-0.18010843890836437	1.5485995069448024	-0.6321246312799522	-0.14909368318377428	1.5682689666179686	-0.569169333339711	-0.1766446584372966	2.048415095461291	-0.5663598806113921	-0.21364728484802462	2.114403597620863	-0.5883262263816392	-0.1940595649433739	2.045852519604633	-0.48019150444650976	-0.19726069356418355	1.9531307412466465	-0.4575328427084013	-0.21760135360497393	1.8786847315871593	-0.4278133159271085	-0.156755998358979	2.0515063269454274	-0.6524740429664505	-1.5376518514082054	1.8771395991463742	0.8211495644612549	-0.14672223291424819	1.8851437826374404	-0.6781476722707729
